<svg width="126" height="126" viewBox="0 0 126 126" fill="none" xmlns="http://www.w3.org/2000/svg">
<g clip-path="url(#clip0_1_3)">
<path d="M126 0H0V126H126V0Z" fill="#E60019"/>
<path d="M37.3686 71.5186C44.8889 71.5186 51.2755 67.3932 52.4407 66.6373C53.2469 68.0482 56.4465 71.5186 63.3685 71.5186C68.8481 71.5186 74.9261 68.7914 76.9542 67.4813C78.1949 69.1441 80.7395 71.5249 88.4992 71.5249C93.6261 71.5249 96.8761 69.7488 98.9168 67.2987C98.9546 68.5898 99.0049 69.8432 99.0616 70.8069L102.167 71.2856C102.066 68.0482 102.148 56.837 102.148 56.6669C102.148 42.5837 91.4405 41.5885 89.1983 41.5885C85.7153 41.5885 82.3582 42.3128 78.8248 43.7048L78.5729 47.4145C79.9459 46.7721 84.3548 44.8763 88.7511 44.8763C92.2089 44.8763 94.8732 46.0352 96.6808 48.3278C84.7768 54.5885 77.6722 59.6272 76.6014 63.803C73.553 65.8626 68.1867 68.2434 63.4062 68.2434C58.3171 68.2434 56.1253 66.0453 55.1742 64.7667C68.2371 55.9804 75.0079 50.9102 74.1765 46.9044C73.4333 43.2954 68.0671 41.6011 63.2551 41.6011C58.336 41.6011 54.9538 43.7237 53.354 45.3739C50.7842 48.0255 49.556 51.9557 49.7135 57.0574C49.7828 59.2871 50.2236 61.6112 50.9606 63.6456C48.9577 64.9494 43.4969 68.2497 37.23 68.2497C29.7852 68.2497 26.7242 62.4363 26.7242 56.5662C26.7242 50.8787 29.5837 44.8763 37.23 44.8763C41.5318 44.8763 45.8462 46.6902 47.3201 47.3705L47.0744 43.667C44.2968 42.5837 40.6437 41.6011 37.4819 41.6011C24.8221 41.6011 23.7765 52.2265 23.8395 56.5536C23.7828 60.8932 24.9418 71.5186 37.3686 71.5186ZM98.1736 51.1117C98.5766 52.1258 98.9168 53.4358 99.1246 54.6703C99.1372 54.7333 99.9938 61.3215 96.4856 65.3462C94.6716 67.4309 91.9381 68.3442 88.4677 68.3694C80.5506 68.4387 79.7821 65.4343 79.7821 65.4343C78.9571 63.5952 81.6276 59.8791 98.1736 51.1117ZM55.3758 47.7799C57.1897 45.6951 59.8791 44.6432 63.3496 44.6432C67.0908 44.6432 70.2337 45.947 70.555 47.446C70.7943 48.5672 69.7362 50.0032 64.899 53.883C64.8486 53.9271 59.961 58.0715 53.65 61.819C53.2532 60.8113 52.9446 59.6776 52.7367 58.4557C52.7241 58.3864 51.8675 51.8045 55.3758 47.7799Z" fill="white"/>
<path d="M99.0805 81.3441H26.9132V84.4178H99.0805V81.3441Z" fill="white"/>
</g>
<defs>
<clipPath id="clip0_1_3">
<rect width="126" height="126" fill="white"/>
</clipPath>
</defs>
</svg>
